<svg width="24" height="22" viewBox="0 0 24 22" fill="none" xmlns="http://www.w3.org/2000/svg">
<path d="M10.2824 12.3078C10.2824 11.0303 9.24301 9.9909 7.96545 9.9909C6.68788 9.9909 5.64847 11.0303 5.64847 12.3078H7.05472C7.05472 11.8057 7.46329 11.3971 7.96545 11.3971C8.4676 11.3971 8.87613 11.8057 8.87613 12.3078H10.2824Z" fill="#18191F"/>
<path d="M16.0346 9.99085C14.757 9.99085 13.7176 11.0302 13.7176 12.3078H15.1239C15.1239 11.8056 15.5324 11.3971 16.0346 11.3971C16.5367 11.3971 16.9453 11.8056 16.9453 12.3078H18.3515C18.3515 11.0302 17.3122 9.99085 16.0346 9.99085Z" fill="#18191F"/>
<path d="M12 16.4225C11.111 16.4225 10.2774 15.9457 9.82438 15.1782L8.61327 15.8928C9.31791 17.0869 10.6156 17.8287 12 17.8287C13.3843 17.8287 14.682 17.0869 15.3867 15.8928L14.1756 15.1781C13.7227 15.9457 12.889 16.4225 12 16.4225Z" fill="#18191F"/>
<path d="M23.0851 9.81724C22.6372 9.36992 22.0748 9.07414 21.4644 8.95831C20.1461 4.88452 16.3219 2.07967 12 2.07967H11.5286C10.3965 2.07967 9.47548 1.1586 9.47548 0.0265572H8.06923C8.06923 0.794756 8.32123 1.50499 8.74646 2.07967H8.30093C7.16884 2.07967 6.24782 1.1586 6.24782 0.0265572H4.84157C4.84157 1.55446 5.83759 2.85328 7.21409 3.31004C5.03704 4.50692 3.33065 6.5017 2.5357 8.95831C1.92526 9.07414 1.36272 9.37001 0.914492 9.81777C0.324778 10.4081 1.52588e-05 11.1925 1.52588e-05 12.0266C1.52588e-05 12.8503 0.317806 13.6275 0.894903 14.2151C1.34593 14.6743 1.91553 14.9773 2.5357 15.0948C3.85391 19.1686 7.67811 21.9734 12 21.9734C16.3219 21.9734 20.1461 19.1686 21.4643 15.0948C22.0845 14.9773 22.6541 14.6743 23.1051 14.2151C23.6822 13.6275 24 12.8503 24 12.0266C24 11.1925 23.6753 10.4081 23.0851 9.81724ZM20.9103 13.7432L20.3827 13.7532L20.2449 14.2627C19.241 17.9746 15.8506 20.5671 12 20.5671C8.1493 20.5671 4.75895 17.9747 3.75516 14.2627L3.61737 13.7532L3.0897 13.7432C2.16142 13.7256 1.40621 12.9556 1.40621 12.0266C1.40621 11.5678 1.58489 11.1364 1.90875 10.8121C2.22459 10.4966 2.64398 10.3182 3.08955 10.3099L3.61732 10.3L3.75511 9.7904C4.75895 6.07847 8.14934 3.48596 12 3.48596C13.2709 3.48596 14.3049 4.51992 14.3049 5.79084C14.3049 7.06177 13.2709 8.09577 12 8.09577C10.7291 8.09577 9.69513 7.06181 9.69513 5.79089H8.28889C8.28889 7.83722 9.95368 9.50202 12 9.50202C14.0463 9.50202 15.7111 7.83722 15.7111 5.79089C15.7111 5.20853 15.576 4.65733 15.3359 4.16632C17.6944 5.16954 19.5468 7.20914 20.2449 9.79045L20.3827 10.3L20.9104 10.3099C21.356 10.3183 21.7754 10.4967 22.0907 10.8116C22.4151 11.1364 22.5938 11.5679 22.5938 12.0266C22.5938 12.9556 21.8386 13.7257 20.9103 13.7432Z" fill="#18191F"/>
</svg>
